<?xml version="1.0" encoding="UTF-8"?>
<svg id="Camada_2" data-name="Camada 2" xmlns="http://www.w3.org/2000/svg" viewBox="0 0 19.21 20.99">
  <defs>
    <style>
      .cls-1 {
        fill: #63acd5;
        fill-rule: evenodd;
      }
    </style>
  </defs>
  <g id="Layer_1" data-name="Layer 1">
    <path class="cls-1" d="M.32,10.52s.07.11.33.23c0,0,.15-1.93.81-2.64,1.63-1.68.95-3.59,3.41-4.11-1.12,1.27.86.04,2.09.64-1.32.2-1.59,2.21-3.57,2.5C-.01,11.11,5.75,18.54,11.18,15.95c4.46-1.46,5.42-9.62.19-10.3-.02.03-.02.03-.04.06.2.21.45.56.65.77-.79-.14-2.42-1.35-3.24-.58.02.32.08.74.23.99-.76-.36-1.27-.93-1.6-1.89.23.09.46.23.69.32.45.22.25-.45.21-.71.54.69,2.04.85,2.01-.26-.18-.79-2.43-1.89-2.06-.38-.34-.26-.75-.59-1.09-.85-.03,0,.2.83.17.87-.24-.24-.47-.48-.71-.73-.05.36,0,.72.19,1.05-.64-.32-.57-1.24-.9-1.84.72-.82,2.48.92,3.39-.69,2.24.24,4.65-.22,6.53-1.78-.75,1.24-2.25,1.7-3.06,2.09.89.19,5.23-1.15,5.23-1.15-.86.82-3.12.96-4.43,1.81,0,0,1.35,1.05,2.12,1.18l-.85.29s2.24.88,2.77,1.73l-1.27-.17c-.04.85,2.44,1.09,2.34,2.27,0,0-.7-.59-1.3-.27l.06.39s1.67.48,1.79,1.71c0,0-.81-.59-1.47-.42,0,0,1.4.85,1.31,2.26,0,0-.37-.32-.9-.38-.57.97,1.31,1.95.66,3.2,0,0-.33-.63-.87-.72-.48.61.27,1.93-.18,2.84.09.02-.38-.87-.98-.59-.58.6.23,1.28-.18,2.07,0-.01-.6-1.12-1.29-.56.03.41.02,1.29-.64,1.83,0,0,.11-.68-.22-1.11-.49.46-.79,1.98-1.61,2.17,0,0,.14-.8.09-1.26-.91.32-1.04,1.65-2.21,1.67,0,0,.34-.48.31-1.04-.94.11-1.18.98-2.16,1.11,0,0,.33-.48.41-.92-.79.06-1.32.81-2.24.62,0,0,.41-.37.52-.78-.16.12-.43.29-.8.38-.61.15-1.11-.02-1.32-.09.24.02.47-.07.58-.25.06-.09.07-.19.07-.26-.2.05-.46.09-.76.08-.55-.02-.97-.2-1.2-.32.46-.07.69-.15.69-.21,0-.05-.14-.1-.42-.15-.46-.18-2.59-1.07-3.73-3.48-1.14-2.4-.49-4.61-.34-5.09Z"/>
  </g>
</svg>