<?xml version="1.0" encoding="UTF-8"?>
<svg id="Camada_2" data-name="Camada 2" xmlns="http://www.w3.org/2000/svg" viewBox="0 0 141.81 31.27">
  <defs>
    <style>
      .cls-1 {
        fill: #000024;
      }

      .cls-1, .cls-2 {
        stroke-width: 0px;
      }

      .cls-2 {
        fill: #63acd5;
        fill-rule: evenodd;
      }
    </style>
  </defs>
  <g id="Layer_1" data-name="Layer 1">
    <g>
      <path class="cls-1" d="M22.65,23.19c-.07-.05-.17-.14-.29-.24-.03-.02-.06-.06-.11-.1-.07-.06-.15-.13-.22-.21-.33-.35-.49-.74-.58-1.02-.21-.78-.27-1.45-.28-1.95-.02-.93.12-1.63.21-2.06.15-.71.35-1.29.52-1.72.24-2.98.16-5.35.03-7.02-.07-.87-.16-1.75-.8-2.51-.76-.91-2.01-1.34-3.51-1.34-2.58,0-5.66,1.68-8.21,3.76V0h-.18C7.55,2.33,2.36,1.68,0,1.68v.18h.4c1.37,0,1.71,1.09,1.71,1.87v17.64c0,1.28-.77,1.93-1.86,1.93v.19h3.23c1.46,0,1.9-.31,2.36-.35.5.04.87.35,2.33.35h2.8v-.19c-1.03,0-1.56-.65-1.56-1.93v-12.05c1.34-1.12,2.86-2.11,3.73-2.11,1.03,0,1.49.74,1.49,2.2v11.96c0,1.28-.46,1.93-1.52,1.93v.19h2.77c1.46,0,1.86-.31,2.36-.35.27.02.53.14,1,.23.56.11,1,.11,1.36.12,1.03.02,1.99.01,2.7,0-.11-.03-.25-.07-.39-.14-.1-.05-.19-.1-.27-.16Z"/>
      <path class="cls-1" d="M43.88,21.75c-.19.43-.5.68-.81.68-.41,0-.81-.56-.81-1.71v-9.69c0-4.82-5.16-6.03-9.35-6.03-3.23,0-8.17,1.4-8.17,4.13,0,1.12.78,2.08,2.05,2.08s1.96-.74,2.42-1.7c1.12-1.93,1.62-4.29,3.7-4.29,1.62,0,2.05,2.02,2.05,4.84-3.14,1.04-8.77,2.55-11.11,5.79-.67.92-1.07,1.99-1.07,3.22,0,1.55.57,2.76,1.49,3.59.17.16.36.31.56.44.22.15.46.28.71.39.75.34,1.6.52,2.49.52,2.46,0,5.25-1.36,6.93-4v.56c0,2.2,2.42,3.44,4.82,3.44,1.8,0,3.6-.74,4.31-2.11l-.21-.15ZM34.96,19.48c-.68.96-1.71,1.58-2.67,1.58-1.18,0-2.24-1.12-2.24-3.51,0-2.55,1.15-5.84,4.91-7.11v9.04Z"/>
      <path class="cls-1" d="M62.04,7.49c-.05,1.35-1.28,2.45-2.24,2.45-.1,0-.2-.01-.31-.02-.57-.05-1.2-.23-1.77-.38-1.89-.41-3.76-.62-4.63,2.51v9.32c0,1.28,1,1.93,2.02,1.93v.19h-3.17c-1.55,0-1.92-.35-2.42-.35-.47,0-.9.35-2.42.35h-1.91v-1.82c.02-.06.01-.11.01-.11,0-.04-.01-.51-.01-1.29v-1.26c.01-.57.01-1.21.01-1.91v-7.32c-.02-.4-.11-.7-.18-.9-.13-.37-.31-.63-.55-.99-.09-.14-.25-.37-.48-.64-.16-.19-.35-.39-1.12-1.04-.2-.17-.47-.4-.79-.66l-.03-.24c.58.45,3.06,2.29,6.5,1.93,2.13-.22,3.64-1.19,4.35-1.71h.19v5.37c1.43-3.97,3.67-5.99,6.43-5.9,1.1.04,1.73.59,1.73.59.82.73.79,1.81.79,1.9Z"/>
      <path class="cls-1" d="M88.09,14.48c0-.96,0-2.65.86-4.6.74-1.67,1.76-2.77,2.42-3.38-.26-.3-.7-.75-1.37-1.07,0,0-.94-.42-2.27-.42-2.49,0-5.75,1.52-7.8,3.45-.22-2.39-1.92-3.45-4.29-3.45-2.57,0-5.46,1.49-7.98,3.61v-3.11h-.19c-.33.33-.94.84-1.83,1.2-.95.38-1.79.41-2.27.39.05.31.08.82-.07,1.41-.06.22-.38,1.43-1.57,2.18-.52.33-1.03.46-1.41.52.07,5.07.06,8.82.04,10.15,0,.27-.03.86-.43,1.32-.36.41-.93.61-1.68.61v.19h3.35c1.59,0,2.02-.35,2.49-.35s.87.35,2.42.35h2.7v-.19c-1.02,0-1.55-.65-1.55-1.93v-12.21c1.21-1.02,2.58-1.95,3.48-1.95,1.06,0,1.49.74,1.49,2.2v11.96c0,1.28-.56,1.93-1.65,1.93v.19h2.99c1.49,0,1.92-.35,2.39-.35.53,0,.9.35,2.42.35h2.7v-.19c-1.02,0-1.55-.65-1.55-1.93v-12.39c1.09-.9,2.42-1.77,3.33-1.77,1.02,0,1.49.74,1.49,2.2v11.96c0,1.28-.35,1.93-1.43,1.93v.19h2.67c1.55,0,1.99-.35,2.45-.35.53,0,.91.35,2.43.35h2.63-.33c-.72-.32-1.88-.95-2.91-2.12-2.15-2.44-2.17-5.44-2.18-6.87Z"/>
      <path class="cls-1" d="M119.55,7.36c-.29-.71-.88-1.5-1.78-1.62-1.78.7-3.6,1.88-5.2,3.24v-3.45h-.19c-.79.27-1.74.54-2.83.72-1.16.2-2.2.26-3.08.25.6.49,1.44,1.3,2.14,2.49,1.18,2.04,1.24,3.97,1.26,5.02.03,1.32.08,4.36-2.08,6.94-1.24,1.47-2.7,2.19-3.57,2.54h2.41c1.46,0,1.9-.31,2.36-.35.5.04.87.35,2.33.35h2.71v-.19c-.75,0-1.46-.65-1.46-1.93v-11.96c1.43-1.3,3.04-2.42,3.94-2.42,1.06,0,1.49.74,1.49,2.2v12.18c0,1.28-.49,1.93-1.33,1.93v.19h2.7c1.46,0,1.9-.31,2.36-.35.5.04.9.35,2.33.35h1.64l-6.15-16.13Z"/>
      <g>
        <path class="cls-1" d="M140.79,5.53c-.69,0-1.09.37-1.62.37s-.96-.37-1.71-.37h-3.2v.19c1.87,0,3.39,4.69,2.21,7.76l-2.15,5.5c-.54,1.51-1.08,3.03-1.62,4.54h.29c.07-.59.21-1.36.53-2.22.33-.88.74-1.57,1.08-2.07,0-.01.01-.01.01-.02l3.72-9.95c1.34-3.61,2.46-3.54,3.48-3.54v-.19h-1.02Z"/>
        <path class="cls-1" d="M134.32,18.98c-.54,1.51-1.08,3.03-1.62,4.54-1.42-.01-2.86-.02-4.28-.03-3.35-8.88-5.83-15.34-6.15-16.13-.18-.44-.32-.64-.61-1.04-.25-.35-.45-.57-.74-.72-.19-.1-.37-.15-.5-.18.15-.03.36-.07.62-.09.31-.02.89-.04,1.59.11.71.15.59.27,1.24.41.73.15,1.33.09,1.59.06.41-.05.5-.12.96-.22.36-.08.88-.15,1.74-.15h2.89v.19c-1.09,0-1.58,1.02-1.15,2.11l4.41,11.15Z"/>
        <path class="cls-1" d="M134.61,19.21s-.01.01-.01.02c-.51,1.45-1.02,2.9-1.54,4.34-.1.27-.25.67-.47,1.12-1.97,4.01-6.6,7.44-9.57,6.39-.78-.27-2.04-1.07-2.12-2.13-.04-.52.22-.93.28-1.02.45-.68,1.28-.84,2.74-1.03,1.26-.16,3.05-.36,4.52-.55.11-.02.47-.1.94-.22.9-.24,1.46-.39,1.93-.68.3-.19.96-.69,1.37-1.88.01-.02.01-.03.02-.05.54-1.51,1.08-3.03,1.62-4.54.1.08.19.15.29.23Z"/>
      </g>
      <path class="cls-2" d="M90.04,13.54s.07.11.33.23c0,0,.15-1.93.81-2.64,1.63-1.68.95-3.59,3.41-4.11-1.12,1.27.86.04,2.09.64-1.32.2-1.59,2.21-3.57,2.5-3.41,3.98,2.36,11.41,7.78,8.82,4.46-1.46,5.42-9.62.19-10.3-.02.03-.02.03-.04.06.2.21.45.56.65.77-.79-.14-2.42-1.35-3.24-.58.02.32.08.74.23.99-.76-.36-1.27-.93-1.6-1.89.23.09.46.23.69.32.45.22.25-.45.21-.71.54.69,2.04.85,2.01-.26-.18-.79-2.43-1.89-2.06-.38-.34-.26-.75-.59-1.09-.85-.03,0,.2.83.17.87-.24-.24-.47-.48-.71-.73-.05.36,0,.72.19,1.05-.64-.32-.57-1.24-.9-1.84.72-.82,2.48.92,3.39-.69,2.24.24,4.65-.22,6.53-1.78-.75,1.24-2.25,1.7-3.06,2.09.89.19,5.23-1.15,5.23-1.15-.86.82-3.12.96-4.43,1.81,0,0,1.35,1.05,2.12,1.18l-.85.29s2.24.88,2.77,1.73l-1.27-.17c-.04.85,2.44,1.09,2.34,2.27,0,0-.7-.59-1.3-.27l.06.39s1.67.48,1.79,1.71c0,0-.81-.59-1.47-.42,0,0,1.4.85,1.31,2.26,0,0-.37-.32-.9-.38-.57.97,1.31,1.95.66,3.2,0,0-.33-.63-.87-.72-.48.61.27,1.93-.18,2.84.09.02-.38-.87-.98-.59-.58.6.23,1.28-.18,2.07,0-.01-.6-1.12-1.29-.56.03.41.02,1.29-.64,1.83,0,0,.11-.68-.22-1.11-.49.46-.79,1.98-1.61,2.17,0,0,.14-.8.09-1.26-.91.32-1.04,1.65-2.21,1.67,0,0,.34-.48.31-1.04-.94.11-1.18.98-2.16,1.11,0,0,.33-.48.41-.92-.79.06-1.32.81-2.24.62,0,0,.41-.37.52-.78-.16.12-.43.29-.8.38-.61.15-1.11-.02-1.32-.09.24.02.47-.07.58-.25.06-.09.07-.19.07-.26-.2.05-.46.09-.76.08-.55-.02-.97-.2-1.2-.32.46-.07.69-.15.69-.21,0-.05-.14-.1-.42-.15-.46-.18-2.59-1.07-3.73-3.48-1.14-2.4-.49-4.61-.34-5.09Z"/>
    </g>
  </g>
</svg>